<mxfile host="app.diagrams.net" modified="2021-12-30T05:33:16.974Z" agent="5.0 (Windows NT 10.0; Win64; x64) AppleWebKit/537.36 (KHTML, like Gecko) Chrome/96.0.4664.93 Safari/537.36" etag="tR-ACuuORHfOL9qVL45B" version="16.1.0" type="github">
  <diagram id="sbMNMB5IN-C7nu9cRoTQ" name="Page-1">
    <mxGraphModel dx="782" dy="436" grid="1" gridSize="10" guides="1" tooltips="1" connect="1" arrows="1" fold="1" page="1" pageScale="1" pageWidth="827" pageHeight="1169" math="0" shadow="0">
      <root>
        <mxCell id="0" />
        <mxCell id="1" parent="0" />
        <mxCell id="FEcrKsarxwIgEvE69MRD-4" style="edgeStyle=orthogonalEdgeStyle;rounded=0;orthogonalLoop=1;jettySize=auto;html=1;entryX=0.5;entryY=0;entryDx=0;entryDy=0;" edge="1" parent="1" source="FEcrKsarxwIgEvE69MRD-1">
          <mxGeometry relative="1" as="geometry">
            <mxPoint x="350" y="180" as="targetPoint" />
          </mxGeometry>
        </mxCell>
        <mxCell id="FEcrKsarxwIgEvE69MRD-1" value="开始" style="rounded=0;whiteSpace=wrap;html=1;" vertex="1" parent="1">
          <mxGeometry x="290" y="60" width="120" height="60" as="geometry" />
        </mxCell>
        <mxCell id="FEcrKsarxwIgEvE69MRD-5" style="edgeStyle=orthogonalEdgeStyle;rounded=0;orthogonalLoop=1;jettySize=auto;html=1;exitX=0.5;exitY=1;exitDx=0;exitDy=0;entryX=0.5;entryY=0;entryDx=0;entryDy=0;" edge="1" parent="1" target="FEcrKsarxwIgEvE69MRD-3">
          <mxGeometry relative="1" as="geometry">
            <mxPoint x="350" y="240" as="sourcePoint" />
          </mxGeometry>
        </mxCell>
        <mxCell id="FEcrKsarxwIgEvE69MRD-3" value="条件一" style="ellipse;whiteSpace=wrap;html=1;" vertex="1" parent="1">
          <mxGeometry x="290" y="300" width="120" height="80" as="geometry" />
        </mxCell>
        <mxCell id="FEcrKsarxwIgEvE69MRD-8" style="edgeStyle=orthogonalEdgeStyle;rounded=0;orthogonalLoop=1;jettySize=auto;html=1;exitX=1;exitY=0.5;exitDx=0;exitDy=0;" edge="1" parent="1" source="FEcrKsarxwIgEvE69MRD-6" target="FEcrKsarxwIgEvE69MRD-7">
          <mxGeometry relative="1" as="geometry" />
        </mxCell>
        <mxCell id="FEcrKsarxwIgEvE69MRD-6" value="判断" style="rhombus;whiteSpace=wrap;html=1;" vertex="1" parent="1">
          <mxGeometry x="310" y="180" width="80" height="80" as="geometry" />
        </mxCell>
        <mxCell id="FEcrKsarxwIgEvE69MRD-7" value="满足条件二" style="rounded=1;whiteSpace=wrap;html=1;" vertex="1" parent="1">
          <mxGeometry x="550" y="190" width="120" height="60" as="geometry" />
        </mxCell>
      </root>
    </mxGraphModel>
  </diagram>
</mxfile>
